<mxfile host="app.diagrams.net" modified="2021-07-02T03:18:02.716Z" agent="5.0 (Macintosh; Intel Mac OS X 10_15_7) AppleWebKit/537.36 (KHTML, like Gecko) Chrome/91.0.4472.114 Safari/537.36" etag="LgEgpxI0i99oTs1AWBLk" version="14.8.3" type="github">
  <diagram id="kduv379LIr5jAOSpMAY8" name="Page-1">
    <mxGraphModel dx="1426" dy="724" grid="0" gridSize="10" guides="1" tooltips="1" connect="1" arrows="1" fold="1" page="1" pageScale="1" pageWidth="827" pageHeight="1169" math="0" shadow="0">
      <root>
        <mxCell id="0" />
        <mxCell id="1" parent="0" />
        <mxCell id="7TP2NFPiy9ONUSQoUl90-53" style="edgeStyle=orthogonalEdgeStyle;rounded=0;orthogonalLoop=1;jettySize=auto;html=1;entryX=0.1;entryY=0.5;entryDx=0;entryDy=0;entryPerimeter=0;" edge="1" parent="1" source="IUY-bVCzfTj49yKa2Lh3-29" target="7TP2NFPiy9ONUSQoUl90-21">
          <mxGeometry relative="1" as="geometry" />
        </mxCell>
        <mxCell id="7TP2NFPiy9ONUSQoUl90-64" style="edgeStyle=orthogonalEdgeStyle;rounded=0;orthogonalLoop=1;jettySize=auto;html=1;entryX=0.1;entryY=0.5;entryDx=0;entryDy=0;entryPerimeter=0;" edge="1" parent="1" source="IUY-bVCzfTj49yKa2Lh3-29" target="7TP2NFPiy9ONUSQoUl90-19">
          <mxGeometry relative="1" as="geometry" />
        </mxCell>
        <mxCell id="IUY-bVCzfTj49yKa2Lh3-29" value="" style="strokeColor=#666666;html=1;labelPosition=right;align=left;spacingLeft=15;shadow=0;dashed=0;outlineConnect=0;shape=mxgraph.rack.f5.arx_500;" parent="1" vertex="1">
          <mxGeometry x="320" y="20" width="168" height="20" as="geometry" />
        </mxCell>
        <mxCell id="IUY-bVCzfTj49yKa2Lh3-38" style="edgeStyle=orthogonalEdgeStyle;rounded=0;orthogonalLoop=1;jettySize=auto;html=1;" parent="1" source="IUY-bVCzfTj49yKa2Lh3-35" target="IUY-bVCzfTj49yKa2Lh3-37" edge="1">
          <mxGeometry relative="1" as="geometry" />
        </mxCell>
        <mxCell id="IUY-bVCzfTj49yKa2Lh3-35" value="kong" style="points=[[0,0,0],[0.25,0,0],[0.5,0,0],[0.75,0,0],[1,0,0],[0,1,0],[0.25,1,0],[0.5,1,0],[0.75,1,0],[1,1,0],[0,0.25,0],[0,0.5,0],[0,0.75,0],[1,0.25,0],[1,0.5,0],[1,0.75,0]];outlineConnect=0;fontColor=#232F3E;gradientColor=#F54749;gradientDirection=north;fillColor=#C7131F;strokeColor=#ffffff;dashed=0;verticalLabelPosition=bottom;verticalAlign=top;align=center;html=1;fontSize=12;fontStyle=0;aspect=fixed;shape=mxgraph.aws4.resourceIcon;resIcon=mxgraph.aws4.api_gateway;" parent="1" vertex="1">
          <mxGeometry x="567" y="368" width="40" height="40" as="geometry" />
        </mxCell>
        <mxCell id="IUY-bVCzfTj49yKa2Lh3-37" value="PG" style="strokeWidth=2;html=1;shape=mxgraph.flowchart.database;whiteSpace=wrap;" parent="1" vertex="1">
          <mxGeometry x="572" y="503" width="30" height="30" as="geometry" />
        </mxCell>
        <mxCell id="IUY-bVCzfTj49yKa2Lh3-46" value="nginx 1.17.5" style="shape=image;html=1;verticalAlign=top;verticalLabelPosition=bottom;labelBackgroundColor=#ffffff;imageAspect=0;aspect=fixed;image=https://cdn4.iconfinder.com/data/icons/logos-brands-5/24/nginx-128.png" parent="1" vertex="1">
          <mxGeometry x="278" y="165" width="30" height="30" as="geometry" />
        </mxCell>
        <mxCell id="IUY-bVCzfTj49yKa2Lh3-47" value="nginx 1.17.5" style="shape=image;html=1;verticalAlign=top;verticalLabelPosition=bottom;labelBackgroundColor=#ffffff;imageAspect=0;aspect=fixed;image=https://cdn4.iconfinder.com/data/icons/logos-brands-5/24/nginx-128.png" parent="1" vertex="1">
          <mxGeometry x="156" y="168" width="30" height="30" as="geometry" />
        </mxCell>
        <mxCell id="IUY-bVCzfTj49yKa2Lh3-48" value="nginx 1.17.5" style="shape=image;html=1;verticalAlign=top;verticalLabelPosition=bottom;labelBackgroundColor=#ffffff;imageAspect=0;aspect=fixed;image=https://cdn4.iconfinder.com/data/icons/logos-brands-5/24/nginx-128.png" parent="1" vertex="1">
          <mxGeometry x="511" y="162" width="30" height="30" as="geometry" />
        </mxCell>
        <mxCell id="IUY-bVCzfTj49yKa2Lh3-49" value="nginx 1.17.5" style="shape=image;html=1;verticalAlign=top;verticalLabelPosition=bottom;labelBackgroundColor=#ffffff;imageAspect=0;aspect=fixed;image=https://cdn4.iconfinder.com/data/icons/logos-brands-5/24/nginx-128.png" parent="1" vertex="1">
          <mxGeometry x="633" y="160" width="30" height="30" as="geometry" />
        </mxCell>
        <mxCell id="IUY-bVCzfTj49yKa2Lh3-63" style="edgeStyle=orthogonalEdgeStyle;rounded=0;orthogonalLoop=1;jettySize=auto;html=1;entryX=0.5;entryY=0;entryDx=0;entryDy=0;entryPerimeter=0;" parent="1" source="IUY-bVCzfTj49yKa2Lh3-50" target="IUY-bVCzfTj49yKa2Lh3-56" edge="1">
          <mxGeometry relative="1" as="geometry" />
        </mxCell>
        <mxCell id="IUY-bVCzfTj49yKa2Lh3-50" value="kong" style="points=[[0,0,0],[0.25,0,0],[0.5,0,0],[0.75,0,0],[1,0,0],[0,1,0],[0.25,1,0],[0.5,1,0],[0.75,1,0],[1,1,0],[0,0.25,0],[0,0.5,0],[0,0.75,0],[1,0.25,0],[1,0.5,0],[1,0.75,0]];outlineConnect=0;fontColor=#232F3E;gradientColor=#F54749;gradientDirection=north;fillColor=#C7131F;strokeColor=#ffffff;dashed=0;verticalLabelPosition=bottom;verticalAlign=top;align=center;html=1;fontSize=12;fontStyle=0;aspect=fixed;shape=mxgraph.aws4.resourceIcon;resIcon=mxgraph.aws4.api_gateway;" parent="1" vertex="1">
          <mxGeometry x="170" y="368" width="40" height="40" as="geometry" />
        </mxCell>
        <mxCell id="IUY-bVCzfTj49yKa2Lh3-62" style="edgeStyle=orthogonalEdgeStyle;rounded=0;orthogonalLoop=1;jettySize=auto;html=1;entryX=0.5;entryY=0;entryDx=0;entryDy=0;entryPerimeter=0;" parent="1" source="IUY-bVCzfTj49yKa2Lh3-51" target="IUY-bVCzfTj49yKa2Lh3-56" edge="1">
          <mxGeometry relative="1" as="geometry" />
        </mxCell>
        <mxCell id="IUY-bVCzfTj49yKa2Lh3-51" value="kong" style="points=[[0,0,0],[0.25,0,0],[0.5,0,0],[0.75,0,0],[1,0,0],[0,1,0],[0.25,1,0],[0.5,1,0],[0.75,1,0],[1,1,0],[0,0.25,0],[0,0.5,0],[0,0.75,0],[1,0.25,0],[1,0.5,0],[1,0.75,0]];outlineConnect=0;fontColor=#232F3E;gradientColor=#F54749;gradientDirection=north;fillColor=#C7131F;strokeColor=#ffffff;dashed=0;verticalLabelPosition=bottom;verticalAlign=top;align=center;html=1;fontSize=12;fontStyle=0;aspect=fixed;shape=mxgraph.aws4.resourceIcon;resIcon=mxgraph.aws4.api_gateway;" parent="1" vertex="1">
          <mxGeometry x="40" y="368" width="40" height="40" as="geometry" />
        </mxCell>
        <mxCell id="IUY-bVCzfTj49yKa2Lh3-60" style="edgeStyle=orthogonalEdgeStyle;rounded=0;orthogonalLoop=1;jettySize=auto;html=1;entryX=0.533;entryY=0.333;entryDx=0;entryDy=0;entryPerimeter=0;" parent="1" source="IUY-bVCzfTj49yKa2Lh3-52" target="IUY-bVCzfTj49yKa2Lh3-57" edge="1">
          <mxGeometry relative="1" as="geometry" />
        </mxCell>
        <mxCell id="IUY-bVCzfTj49yKa2Lh3-52" value="kong" style="points=[[0,0,0],[0.25,0,0],[0.5,0,0],[0.75,0,0],[1,0,0],[0,1,0],[0.25,1,0],[0.5,1,0],[0.75,1,0],[1,1,0],[0,0.25,0],[0,0.5,0],[0,0.75,0],[1,0.25,0],[1,0.5,0],[1,0.75,0]];outlineConnect=0;fontColor=#232F3E;gradientColor=#F54749;gradientDirection=north;fillColor=#C7131F;strokeColor=#ffffff;dashed=0;verticalLabelPosition=bottom;verticalAlign=top;align=center;html=1;fontSize=12;fontStyle=0;aspect=fixed;shape=mxgraph.aws4.resourceIcon;resIcon=mxgraph.aws4.api_gateway;" parent="1" vertex="1">
          <mxGeometry x="251" y="373" width="40" height="40" as="geometry" />
        </mxCell>
        <mxCell id="7TP2NFPiy9ONUSQoUl90-55" style="edgeStyle=orthogonalEdgeStyle;rounded=0;orthogonalLoop=1;jettySize=auto;html=1;entryX=0.533;entryY=0.633;entryDx=0;entryDy=0;entryPerimeter=0;" edge="1" parent="1" source="IUY-bVCzfTj49yKa2Lh3-53" target="IUY-bVCzfTj49yKa2Lh3-57">
          <mxGeometry relative="1" as="geometry" />
        </mxCell>
        <mxCell id="IUY-bVCzfTj49yKa2Lh3-53" value="kong" style="points=[[0,0,0],[0.25,0,0],[0.5,0,0],[0.75,0,0],[1,0,0],[0,1,0],[0.25,1,0],[0.5,1,0],[0.75,1,0],[1,1,0],[0,0.25,0],[0,0.5,0],[0,0.75,0],[1,0.25,0],[1,0.5,0],[1,0.75,0]];outlineConnect=0;fontColor=#232F3E;gradientColor=#F54749;gradientDirection=north;fillColor=#C7131F;strokeColor=#ffffff;dashed=0;verticalLabelPosition=bottom;verticalAlign=top;align=center;html=1;fontSize=12;fontStyle=0;aspect=fixed;shape=mxgraph.aws4.resourceIcon;resIcon=mxgraph.aws4.api_gateway;" parent="1" vertex="1">
          <mxGeometry x="386" y="373" width="40" height="40" as="geometry" />
        </mxCell>
        <mxCell id="IUY-bVCzfTj49yKa2Lh3-56" value="sit&lt;br&gt;PG" style="strokeWidth=2;html=1;shape=mxgraph.flowchart.database;whiteSpace=wrap;" parent="1" vertex="1">
          <mxGeometry x="107" y="503" width="30" height="30" as="geometry" />
        </mxCell>
        <mxCell id="IUY-bVCzfTj49yKa2Lh3-57" value="uat&lt;br&gt;PG" style="strokeWidth=2;html=1;shape=mxgraph.flowchart.database;whiteSpace=wrap;" parent="1" vertex="1">
          <mxGeometry x="325" y="508" width="30" height="30" as="geometry" />
        </mxCell>
        <mxCell id="7TP2NFPiy9ONUSQoUl90-58" style="edgeStyle=orthogonalEdgeStyle;rounded=0;orthogonalLoop=1;jettySize=auto;html=1;entryX=0.1;entryY=0.5;entryDx=0;entryDy=0;entryPerimeter=0;" edge="1" parent="1" source="7TP2NFPiy9ONUSQoUl90-18" target="7TP2NFPiy9ONUSQoUl90-56">
          <mxGeometry relative="1" as="geometry" />
        </mxCell>
        <mxCell id="7TP2NFPiy9ONUSQoUl90-63" style="edgeStyle=orthogonalEdgeStyle;rounded=0;orthogonalLoop=1;jettySize=auto;html=1;exitX=0.1;exitY=0.5;exitDx=0;exitDy=0;exitPerimeter=0;entryX=0.1;entryY=0.5;entryDx=0;entryDy=0;entryPerimeter=0;" edge="1" parent="1" source="7TP2NFPiy9ONUSQoUl90-18" target="7TP2NFPiy9ONUSQoUl90-57">
          <mxGeometry relative="1" as="geometry" />
        </mxCell>
        <mxCell id="7TP2NFPiy9ONUSQoUl90-18" value="" style="shape=curlyBracket;whiteSpace=wrap;html=1;rounded=1;flipH=1;rotation=90;" vertex="1" parent="1">
          <mxGeometry x="222" y="190" width="20" height="120" as="geometry" />
        </mxCell>
        <mxCell id="7TP2NFPiy9ONUSQoUl90-19" value="" style="shape=curlyBracket;whiteSpace=wrap;html=1;rounded=1;flipH=1;rotation=-90;" vertex="1" parent="1">
          <mxGeometry x="222" y="70" width="20" height="120" as="geometry" />
        </mxCell>
        <mxCell id="7TP2NFPiy9ONUSQoUl90-51" style="edgeStyle=orthogonalEdgeStyle;rounded=0;orthogonalLoop=1;jettySize=auto;html=1;" edge="1" parent="1" source="7TP2NFPiy9ONUSQoUl90-20" target="IUY-bVCzfTj49yKa2Lh3-35">
          <mxGeometry relative="1" as="geometry" />
        </mxCell>
        <mxCell id="7TP2NFPiy9ONUSQoUl90-78" value="prod" style="edgeLabel;html=1;align=center;verticalAlign=middle;resizable=0;points=[];" vertex="1" connectable="0" parent="7TP2NFPiy9ONUSQoUl90-51">
          <mxGeometry x="0.1892" relative="1" as="geometry">
            <mxPoint as="offset" />
          </mxGeometry>
        </mxCell>
        <mxCell id="7TP2NFPiy9ONUSQoUl90-20" value="" style="shape=curlyBracket;whiteSpace=wrap;html=1;rounded=1;flipH=1;rotation=89;" vertex="1" parent="1">
          <mxGeometry x="577" y="187" width="20" height="120" as="geometry" />
        </mxCell>
        <mxCell id="7TP2NFPiy9ONUSQoUl90-21" value="" style="shape=curlyBracket;whiteSpace=wrap;html=1;rounded=1;direction=south;" vertex="1" parent="1">
          <mxGeometry x="527" y="117" width="120" height="20" as="geometry" />
        </mxCell>
        <mxCell id="7TP2NFPiy9ONUSQoUl90-49" value="555" style="text;html=1;align=center;verticalAlign=middle;resizable=0;points=[];autosize=1;strokeColor=none;" vertex="1" parent="1">
          <mxGeometry x="509" y="214" width="30" height="18" as="geometry" />
        </mxCell>
        <mxCell id="7TP2NFPiy9ONUSQoUl90-50" value="666" style="text;html=1;align=center;verticalAlign=middle;resizable=0;points=[];autosize=1;strokeColor=none;" vertex="1" parent="1">
          <mxGeometry x="631" y="212" width="30" height="18" as="geometry" />
        </mxCell>
        <mxCell id="7TP2NFPiy9ONUSQoUl90-56" value="" style="shape=curlyBracket;whiteSpace=wrap;html=1;rounded=1;rotation=90;" vertex="1" parent="1">
          <mxGeometry x="117" y="272" width="20" height="120" as="geometry" />
        </mxCell>
        <mxCell id="7TP2NFPiy9ONUSQoUl90-57" value="" style="shape=curlyBracket;whiteSpace=wrap;html=1;rounded=1;rotation=90;" vertex="1" parent="1">
          <mxGeometry x="330" y="272" width="20" height="120" as="geometry" />
        </mxCell>
        <mxCell id="7TP2NFPiy9ONUSQoUl90-66" value="555" style="text;html=1;align=center;verticalAlign=middle;resizable=0;points=[];autosize=1;strokeColor=none;" vertex="1" parent="1">
          <mxGeometry x="148" y="221" width="30" height="18" as="geometry" />
        </mxCell>
        <mxCell id="7TP2NFPiy9ONUSQoUl90-67" value="666" style="text;html=1;align=center;verticalAlign=middle;resizable=0;points=[];autosize=1;strokeColor=none;" vertex="1" parent="1">
          <mxGeometry x="272" y="218" width="30" height="18" as="geometry" />
        </mxCell>
        <mxCell id="7TP2NFPiy9ONUSQoUl90-70" value="内网" style="rounded=1;whiteSpace=wrap;html=1;dashed=1;fillColor=none;" vertex="1" parent="1">
          <mxGeometry x="40" y="97" width="728" height="173" as="geometry" />
        </mxCell>
        <mxCell id="7TP2NFPiy9ONUSQoUl90-72" value="docker" style="text;html=1;strokeColor=none;fillColor=none;align=center;verticalAlign=middle;whiteSpace=wrap;rounded=0;dashed=1;" vertex="1" parent="1">
          <mxGeometry x="709" y="419" width="40" height="20" as="geometry" />
        </mxCell>
        <mxCell id="7TP2NFPiy9ONUSQoUl90-73" value="dev" style="text;html=1;align=center;verticalAlign=middle;resizable=0;points=[];autosize=1;strokeColor=none;" vertex="1" parent="1">
          <mxGeometry x="45.5" y="346" width="29" height="18" as="geometry" />
        </mxCell>
        <mxCell id="7TP2NFPiy9ONUSQoUl90-74" value="sit" style="text;html=1;align=center;verticalAlign=middle;resizable=0;points=[];autosize=1;strokeColor=none;" vertex="1" parent="1">
          <mxGeometry x="176" y="346" width="22" height="18" as="geometry" />
        </mxCell>
        <mxCell id="7TP2NFPiy9ONUSQoUl90-75" value="uat" style="text;html=1;align=center;verticalAlign=middle;resizable=0;points=[];autosize=1;strokeColor=none;" vertex="1" parent="1">
          <mxGeometry x="259" y="343" width="27" height="18" as="geometry" />
        </mxCell>
        <mxCell id="7TP2NFPiy9ONUSQoUl90-76" value="ver" style="text;html=1;align=center;verticalAlign=middle;resizable=0;points=[];autosize=1;strokeColor=none;" vertex="1" parent="1">
          <mxGeometry x="389" y="344" width="27" height="18" as="geometry" />
        </mxCell>
        <mxCell id="7TP2NFPiy9ONUSQoUl90-79" value="" style="rounded=1;whiteSpace=wrap;html=1;dashed=1;fillColor=none;" vertex="1" parent="1">
          <mxGeometry x="36" y="278" width="734" height="193" as="geometry" />
        </mxCell>
        <mxCell id="7TP2NFPiy9ONUSQoUl90-80" value="F5" style="text;html=1;align=center;verticalAlign=middle;resizable=0;points=[];autosize=1;strokeColor=none;" vertex="1" parent="1">
          <mxGeometry x="391" width="24" height="18" as="geometry" />
        </mxCell>
        <mxCell id="7TP2NFPiy9ONUSQoUl90-81" value="&lt;h1&gt;域名&lt;/h1&gt;&lt;div&gt;esb-apidev.midea.com&lt;/div&gt;&lt;div&gt;esb-apisit.midea.com&lt;br&gt;&lt;/div&gt;&lt;div&gt;esb-apiuat.midea.com&lt;br&gt;&lt;/div&gt;&lt;div&gt;esb-apiver.midea.com&lt;br&gt;&lt;/div&gt;&lt;div&gt;esb-apiprod.midea.com&lt;br&gt;&lt;/div&gt;" style="text;html=1;strokeColor=none;fillColor=none;spacing=5;spacingTop=-20;whiteSpace=wrap;overflow=hidden;rounded=0;dashed=1;" vertex="1" parent="1">
          <mxGeometry x="857" y="105" width="190" height="120" as="geometry" />
        </mxCell>
      </root>
    </mxGraphModel>
  </diagram>
</mxfile>
